PathFileType	4	(X/Y/Z)	C:\Users\°ÂÌØÂü\Desktop\20210112\bx_n_10_1801-Unnamed.trc
DataRate	CameraRate	NumFrames	NumMarkers	Units	OrigDataRate	OrigDataStartFrame	OrigNumFrames
50.00	50.00	       5	0	mm	50.00	423	       563
Frame#	Time	
		

423	8.440	-754.21729	281.02914	830.40369	-533.61951	-72.18827	1401.65649	-710.23309	-16.61445	1001.87799	-631.07697	209.73422	822.32001	-678.48010	258.10941	493.94824				-712.64380	227.29158	1007.90424	-664.74036	54.12748	156.42413	-580.82123	-1.08023	498.75189	-700.75262	74.72004	212.20723	-635.52356	-26.33106	809.89398	-645.65485	249.98787	612.63690	-702.27216	149.91273	209.89915	-650.45575	-69.20505	161.03635	-629.11176	-44.64487	551.36078	-760.70538	223.49568	207.08688	-610.36108	-80.37536	154.84164	-882.60272	296.28790	144.86320	-595.27423	60.39913	568.37927	-592.30505	21.37735	168.42133	-548.06915	-36.50169	162.74367	-672.77960	174.13228	153.95065	-589.82239	220.99721	173.09467	-660.46014	298.06726	159.07951	-624.20795	306.49924	159.20712	-553.62909	257.37604	164.06691	-527.99902	304.12732	146.59570	-352.95554	112.76447	1656.90906	-534.31396	278.21478	1398.23950	-517.74133	-72.62498	142.97711	-790.04608	172.40620	187.39462	-625.04950	249.77303	559.36786	-782.42004	52.45605	178.88817	-575.55853	207.70139	512.31763	-690.60828	-48.88943	481.60574	-749.12268	-10.33613	208.79845	-875.87335	-78.57735	141.34627	-745.68750	-84.10089	834.84973	-632.60101	-47.18677	597.83124	-550.03424	92.37542	1194.38879	-683.37494	273.90863	712.32574	-584.48761	148.14844	566.33777	-699.99622	-75.18848	725.64648	
424	8.460	-751.07538	280.20389	835.31696	-537.09943	-72.75971	1414.77527	-704.75836	-16.87993	1008.44312	-628.81592	208.28836	824.23682	-681.57080	257.46609	494.45239	-909.70245	88.83156	1012.77246	-707.39209	226.54581	1014.37933	-664.74036	54.12748	156.42413	-583.98706	0.02622	500.30664	-700.83051	74.66159	212.11096	-633.25177	-25.19734	811.32098	-648.62988	248.83272	614.69293	-702.45618	149.86250	209.90157	-650.53284	-69.14980	160.88954	-632.50269	-43.88284	552.70490	-761.31384	223.49841	207.39418	-610.46912	-80.60993	155.27373	-882.45520	296.03870	144.56952	-599.15704	60.82359	568.98718	-592.35120	21.42105	168.37029	-547.92017	-36.45689	162.94179	-671.48694	173.14638	154.62929	-589.75854	221.02432	172.85475	-660.58893	297.99225	159.10056	-624.20795	306.49924	159.20712	-553.63092	257.60150	164.16855	-528.02759	304.34650	146.51938	-362.79904	113.46558	1673.50476	-538.90192	278.08682	1410.87537	-517.63971	-72.78642	142.97116	-790.04260	172.43025	187.25800	-629.08252	248.65985	560.90479	-782.73450	52.44662	178.91959	-579.15497	207.15721	513.95203	-693.53033	-47.91385	482.26917	-749.49835	-10.44279	208.72099	-876.01624	-78.73471	141.48239	-742.08472	-84.39146	839.41888	-635.56494	-46.24421	598.96014	-549.57428	92.34339	1206.79565	-683.65979	272.79712	715.15863	-588.00519	146.72504	567.83527	-699.11334	-74.53436	728.80048	
425	8.480	-747.67871	279.84335	840.23962	-540.87433	-73.59607	1426.94275	-699.06659	-17.35877	1014.24628	-626.43707	207.27365	826.15540	-685.14740	257.00241	495.92667				-703.26141	227.30894	1020.92169	-664.82324	53.99503	156.52977	-586.47113	1.50081	501.52893	-701.24933	74.57190	212.27470	-630.38354	-25.15005	813.62256	-651.69104	248.73010	617.13245	-702.89996	150.08386	210.07494	-650.49799	-69.23364	160.84871	-635.79578	-42.83792	553.57495	-761.41443	223.46448	207.03642	-610.28363	-80.57888	155.08090	-882.54260	296.22430	144.69029	-602.67346	61.31330	569.62177	-592.38440	21.49855	168.53337	-547.98865	-36.42934	162.90550	-671.92737	173.71271	154.23846	-589.83148	221.00447	172.91420	-660.62628	297.92831	159.06175	-624.27417	306.52985	159.15108	-553.44684	257.61282	164.08488	-528.03583	304.25760	146.54501	-373.15381	113.97160	1689.78052	-543.04083	277.79520	1422.22375	-517.54657	-72.76463	143.10730	-789.98749	172.36237	187.20694	-632.69452	248.30420	561.98041	-782.90887	52.29411	178.77885	-582.93829	206.11244	515.34924	-696.13580	-47.23433	482.82205	-749.56879	-10.44312	208.55861	-875.99792	-78.69180	141.55168	-738.24609	-84.22623	843.07019	-637.77460	-45.60603	600.94104	-549.16418	91.70866	1218.68372	-684.31207	271.20633	718.20557	-591.98889	146.49289	568.46564	-698.31464	-74.27749	732.11444	
426	8.500	-745.06750	279.32736	844.12036	-544.74152	-73.80696	1438.46814	-692.81445	-17.54997	1019.66229	-623.92834	206.99609	827.64868	-688.30426	256.63773	496.68951	-898.21210	87.79270	1023.09015	-698.10913	227.60660	1027.20435	-664.82599	53.90072	156.67404	-589.52667	2.58979	502.96481	-701.61871	74.38951	212.76953	-627.72900	-24.81676	814.73987	-654.73505	247.70546	618.80957	-703.09241	150.40060	210.46289	-650.55975	-69.34862	160.93135	-638.86481	-42.47333	555.10632	-761.66187	223.72299	206.90396	-610.21686	-80.64896	154.96460	-882.37628	296.02225	144.68523	-605.80438	62.31145	570.81848	-592.45380	21.45039	168.64661	-548.08643	-36.44091	162.90674	-671.80560	173.63622	154.87126	-589.82239	220.99721	173.09467	-660.51819	298.16095	158.94730	-624.34167	306.63571	159.11852	-553.69281	257.55072	164.04170	-527.91608	304.27734	146.74899	-384.18240	114.63172	1705.60645	-547.18341	277.66980	1433.19067	-517.20471	-73.09384	143.47595	-790.13745	172.60876	187.09514	-636.24603	247.17981	563.30554	-782.95941	52.25372	178.74805	-586.48053	205.72035	516.72711	-699.14880	-46.73339	483.49597	-749.68414	-10.45754	208.51775	-875.99792	-78.69180	141.55168	-734.44702	-84.46635	846.95978	-640.58746	-44.99276	602.28174	-548.45111	91.89991	1230.12439	-684.06445	270.46466	721.18170	-595.42743	145.81081	569.51825	-697.30023	-73.78525	734.67834	
427	8.520	-741.40082	278.63654	848.15729	-549.19946	-73.68732	1449.03015	-686.94403	-17.69470	1025.22424	-621.50769	206.83470	829.35999	-691.46179	256.11841	497.66812	-893.08441	86.52947	1027.86719	-693.05878	227.31171	1032.66272	-665.17377	53.69706	156.52455	-592.96429	2.71889	503.95865	-701.94812	74.71914	213.33064	-625.04913	-24.52876	815.72357	-657.23138	247.46114	621.12585	-703.30750	150.49631	210.61490	-650.52826	-69.39433	160.86160	-641.66742	-41.94064	556.04395	-761.73981	223.93008	206.70784	-610.11597	-80.23750	154.75044	-882.46381	296.08615	144.66920	-609.07104	62.80959	571.54358	-592.42493	21.40322	168.65096	-548.03101	-36.44045	163.00142	-671.82471	173.81776	154.82544	-589.88617	221.07701	173.02538	-660.56860	298.27231	158.79785	-624.19470	306.88879	159.31894	-553.66479	257.60120	164.17122	-528.03583	304.25760	146.54501	-395.46625	115.07951	1720.66895	-551.22620	278.56299	1444.29968	-517.14423	-73.32894	143.14679	-790.16870	172.76357	187.15840	-640.03552	246.07307	564.68774	-782.89764	52.19500	178.57974	-590.14514	204.88422	517.78156	-701.23962	-46.74258	484.27460	-749.95813	-9.98453	208.05022	-875.97125	-78.75660	141.50529	-730.66675	-84.42280	850.49548	-643.59509	-43.43867	603.09760	-548.08057	91.87078	1241.00061	-684.29828	269.51102	724.09100	-599.77252	145.05324	570.42035	-696.29944	-73.37918	737.02032	
